<?xml version="1.0" standalone="no"?>
<!DOCTYPE svg PUBLIC "-//W3C//DTD SVG 20010904//EN"
 "http://www.w3.org/TR/2001/REC-SVG-20010904/DTD/svg10.dtd">
<svg version="1.0" xmlns="http://www.w3.org/2000/svg"
 width="1024.000000pt" height="1024.000000pt" viewBox="0 0 1024.000000 1024.000000"
 preserveAspectRatio="xMidYMid meet">
<metadata>
Created by potrace 1.14, written by Peter Selinger 2001-2017
</metadata>
<g transform="translate(0.000000,1024.000000) scale(0.100000,-0.100000)"
fill="#000000" stroke="none">
<path d="M5914 8918 c-41 -11 -78 -48 -98 -102 l-17 -45 -42 16 c-56 21 -188
21 -247 -1 -66 -24 -147 -83 -179 -130 -26 -39 -70 -136 -310 -678 -94 -213
-121 -297 -121 -375 0 -25 -4 -33 -17 -33 -37 0 -282 -30 -358 -44 -322 -58
-731 -217 -966 -377 l-58 -39 -30 53 c-93 159 -234 295 -391 376 -152 78 -207
92 -410 99 -96 4 -204 7 -240 6 -220 -4 -198 0 -242 -44 -39 -39 -40 -42 -36
-92 5 -45 11 -57 43 -85 l38 -33 242 0 c133 0 268 -5 301 -11 201 -37 386
-177 474 -359 l31 -65 -68 -62 c-37 -35 -70 -63 -73 -63 -3 0 -14 17 -25 38
-33 61 -155 177 -225 212 -115 58 -137 62 -370 66 -259 4 -296 8 -365 39 -281
124 -285 509 -7 649 76 38 139 46 373 46 199 0 223 2 258 20 60 30 78 69 83
176 5 113 35 182 109 248 67 60 143 89 239 90 100 1 166 -23 233 -84 63 -57
96 -120 104 -195 l6 -55 -94 0 c-52 0 -111 -5 -132 -11 -77 -21 -104 -129 -48
-191 l29 -33 119 -5 118 -5 5 -95 c6 -105 17 -131 66 -155 40 -19 54 -19 104
1 61 25 80 63 80 168 l0 86 90 0 c106 0 140 13 164 64 21 45 20 74 -4 113 -29
49 -66 63 -165 63 l-85 0 0 64 c0 88 -31 181 -91 270 -61 91 -121 144 -215
191 -145 72 -316 83 -481 31 -190 -61 -352 -237 -396 -432 l-14 -59 -179 -6
c-192 -7 -217 -10 -309 -41 -176 -60 -302 -174 -380 -343 -78 -169 -70 -370
22 -533 48 -86 170 -208 250 -250 138 -72 152 -75 443 -81 246 -6 268 -8 306
-28 39 -21 124 -105 180 -178 l26 -35 -38 -46 c-375 -446 -622 -977 -727
-1564 -70 -384 -58 -878 28 -1271 69 -312 246 -720 428 -989 268 -396 607
-720 962 -922 115 -66 310 -162 412 -204 48 -20 92 -40 98 -45 5 -5 -392 -9
-979 -9 l-988 0 -39 -22 c-44 -24 -76 -89 -64 -130 16 -57 29 -79 60 -98 32
-20 45 -20 3234 -20 3481 0 3243 -4 3289 55 26 33 29 102 8 144 -24 45 -63 64
-146 71 -74 6 -74 6 -45 20 105 49 222 160 300 285 213 341 113 805 -220 1021
-41 27 -75 52 -75 56 0 3 14 9 31 13 40 9 105 74 114 113 8 38 -15 95 -48 117
-58 37 -80 32 -267 -58 -96 -46 -254 -121 -350 -165 -96 -44 -240 -112 -320
-151 l-145 -71 -28 33 c-15 17 -41 50 -57 73 l-29 41 52 25 c29 14 249 116
489 227 l436 202 138 -3 138 -3 96 -132 c128 -178 139 -188 198 -188 62 0 107
31 123 86 16 52 10 65 -136 267 -86 120 -126 167 -153 181 -31 16 -72 20 -238
26 -238 9 -220 13 -489 -110 -99 -45 -316 -144 -482 -220 l-302 -137 -33 38
c-197 228 -324 361 -372 389 -71 41 -179 65 -328 72 -76 3 -138 7 -138 9 0 2
5 15 12 29 10 22 16 24 44 19 48 -9 117 27 138 70 21 44 20 61 -5 112 -20 42
-20 43 -1 81 11 21 27 62 36 91 17 50 17 54 -1 85 -10 17 -36 40 -57 51 -32
16 -44 17 -75 7 -21 -6 -45 -19 -53 -28 -9 -10 -35 -70 -58 -133 -24 -63 -48
-118 -54 -122 -6 -4 -21 -8 -33 -8 -35 0 -80 -46 -98 -100 -9 -27 -21 -52 -26
-56 -5 -3 -65 28 -132 69 -67 41 -132 77 -144 80 -45 10 -69 -24 -113 -166
-54 -169 -58 -195 -30 -224 24 -27 42 -28 170 -8 124 19 160 19 160 0 0 -27
-49 -125 -62 -125 -7 1 -40 7 -73 15 -151 37 -338 28 -500 -22 -198 -62 -395
-206 -395 -290 0 -39 30 -93 61 -108 56 -29 101 -19 174 41 146 118 373 175
574 144 44 -7 81 -17 81 -23 0 -6 -8 -31 -17 -55 -16 -44 -16 -44 -57 -38 -74
11 -220 8 -291 -7 -407 -85 -667 -504 -568 -917 47 -199 214 -412 391 -501
l37 -18 -120 -1 -120 0 -91 88 c-232 220 -340 410 -375 650 -14 101 -1 218 42
383 16 61 29 113 29 114 0 9 -256 -42 -359 -71 -97 -28 -86 -34 -146 78 l-36
67 68 20 c133 39 230 60 349 77 l120 17 21 126 c13 80 17 128 11 132 -6 4 -6
8 -1 10 7 3 36 148 59 299 3 19 8 45 11 58 l5 22 -365 0 -364 0 27 -107 c32
-121 109 -345 122 -354 14 -9 -13 -25 -77 -43 -33 -10 -67 -20 -76 -23 -19 -5
-49 59 -103 217 -31 94 -95 336 -109 415 l-5 30 561 0 562 -1 3 -97 c1 -53 6
-97 11 -97 15 0 226 111 233 123 4 7 8 26 8 42 l0 30 99 1 c113 1 152 16 182
74 24 44 24 77 -1 117 -25 42 -76 55 -191 51 l-89 -4 2 380 c3 365 3 369 5 93
l3 -287 414 1 413 1 59 57 c66 64 125 96 203 111 80 15 135 12 193 -10 29 -11
54 -20 56 -20 9 0 -1 360 -13 475 -8 77 -15 148 -15 158 0 15 10 17 74 17 l73
0 7 -47 c4 -27 14 -102 23 -168 12 -82 17 -192 17 -347 l1 -228 489 0 489 0
-7 -72 c-3 -39 -9 -82 -12 -95 l-6 -23 -478 2 -478 3 -16 -80 c-20 -98 -20
-125 -2 -125 8 0 33 -9 57 -20 42 -18 67 -20 455 -20 l412 0 -14 -73 c-17 -87
-17 -82 -1 -70 6 6 74 38 150 73 105 48 141 69 148 87 5 13 20 85 33 161 85
469 55 934 -91 1427 -101 342 -293 723 -504 1002 l-78 102 35 28 c52 41 84 96
157 265 37 84 109 252 162 373 151 343 158 365 152 460 -9 156 -80 267 -217
339 -38 20 -70 39 -70 40 0 2 12 25 26 50 48 86 13 169 -82 195 -73 20 -119
-5 -164 -90 -17 -33 -35 -59 -38 -57 -4 2 -44 19 -89 37 -46 19 -83 39 -83 43
0 4 20 53 45 108 50 112 56 160 26 226 -24 52 -72 92 -158 128 -37 16 -159 69
-270 118 -237 103 -271 114 -336 104 -63 -10 -112 -53 -147 -131 -15 -33 -38
-83 -51 -112 l-24 -51 -91 41 -90 42 23 50 c27 59 28 85 7 130 -27 57 -98 90
-160 73z m748 -364 c203 -87 308 -136 308 -143 0 -3 -13 -31 -29 -61 -17 -33
-33 -54 -42 -52 -26 6 -439 185 -444 192 -4 7 45 129 52 130 1 0 71 -30 155
-66z m-836 -61 c118 -50 135 -60 131 -78 -4 -17 -162 -383 -383 -889 -38 -87
-74 -160 -81 -163 -6 -2 -69 22 -139 54 -161 73 -189 103 -189 196 0 57 9 83
127 347 69 157 147 334 173 395 63 148 74 165 120 187 54 25 80 20 241 -49z
m744 -321 c190 -82 373 -162 407 -178 l63 -29 -51 -115 c-28 -63 -132 -302
-230 -529 -99 -228 -181 -416 -182 -418 -2 -1 -122 48 -268 111 -145 62 -333
141 -416 177 -84 35 -153 68 -153 73 0 9 82 200 315 731 156 356 147 337 159
331 6 -2 166 -72 356 -154z m837 -362 c140 -60 158 -71 183 -113 30 -48 24
-92 -26 -202 -24 -55 -106 -244 -181 -420 -87 -202 -147 -330 -163 -347 -32
-32 -100 -52 -143 -42 -38 8 -249 92 -261 104 -5 5 17 68 52 147 33 76 131
300 216 498 86 198 163 375 171 393 8 17 19 32 25 32 6 0 63 -23 127 -50z
m-2687 -528 c0 -5 -10 -17 -22 -28 -19 -15 -20 -16 -9 -1 11 14 11 17 0 17
-11 0 -11 2 1 10 19 12 30 13 30 2z m-59 -45 c-10 -9 -11 -8 -5 6 3 10 9 15
12 12 3 -3 0 -11 -7 -18z m379 -177 c0 -121 -3 -160 -12 -160 -7 0 -38 -12
-68 -26 -43 -20 -51 -27 -40 -35 12 -8 11 -9 -5 -5 -26 7 -50 -8 -40 -24 5 -8
4 -11 -2 -7 -14 9 -25 -20 -18 -47 4 -14 3 -17 -3 -8 -7 10 -12 5 -22 -20 -8
-18 -26 -61 -42 -96 -30 -68 -33 -76 -19 -67 5 3 12 1 16 -4 3 -6 -3 -8 -14
-6 -22 4 -38 -26 -25 -46 4 -7 3 -9 -3 -6 -6 4 -14 0 -17 -9 -9 -25 -7 -34 8
-34 8 0 18 -4 21 -10 4 -7 -2 -7 -19 0 -16 6 -26 6 -28 -1 -4 -12 -40 -4 -161
33 l-67 21 26 46 c128 221 480 671 527 671 4 0 7 -72 7 -160z m257 48 c-3 -8
-6 -5 -6 6 -1 11 2 17 5 13 3 -3 4 -12 1 -19z m-717 6 c0 -8 -19 -13 -24 -6
-3 5 1 9 9 9 8 0 15 -2 15 -3z m800 -301 c53 -54 79 -91 88 -119 7 -23 23 -67
37 -99 20 -45 32 -59 61 -71 43 -18 110 -15 106 4 -1 8 2 11 7 8 12 -8 41 3
41 16 0 5 -9 23 -21 39 -11 16 -18 29 -16 29 6 0 77 -97 83 -115 8 -21 -345
-105 -443 -105 l-33 0 2 348 c1 191 4 301 7 245 l6 -103 75 -77z m-1545 177
c-3 -5 -12 -10 -18 -10 -7 0 -6 4 3 10 19 12 23 12 15 0z m1964 -24 c21 -14
48 -37 59 -51 14 -17 29 -25 43 -23 13 2 24 -3 26 -12 4 -12 2 -12 -5 -2 -7
11 -11 11 -20 0 -8 -10 -3 -21 19 -46 16 -17 34 -32 39 -32 6 0 8 -4 5 -10 -3
-5 -1 -10 6 -10 7 0 10 -3 6 -6 -9 -9 43 -75 54 -68 5 3 6 -1 3 -9 -3 -9 4
-21 15 -29 12 -8 18 -18 13 -23 -4 -5 -2 -5 4 -2 18 10 100 -95 88 -114 -3 -6
1 -18 9 -27 8 -9 24 -36 36 -60 12 -23 25 -40 30 -38 5 3 8 -4 7 -17 -1 -14 6
-23 19 -25 17 -3 18 -1 5 8 -12 9 -11 10 7 5 16 -4 48 7 107 39 46 25 86 42
90 39 3 -4 6 -1 6 6 0 8 -8 10 -22 6 -17 -5 -19 -4 -9 4 8 5 27 8 42 6 18 -2
34 4 45 16 9 10 22 19 27 19 29 0 -110 -106 -260 -199 l-82 -51 -24 43 c-13
23 -52 94 -86 157 -60 110 -228 368 -312 478 -22 28 -37 52 -34 52 3 0 23 -11
44 -24z m-339 -66 c-6 -11 -13 -20 -16 -20 -2 0 0 9 6 20 6 11 13 20 16 20 2
0 0 -9 -6 -20z m-1067 -35 c-3 -9 -8 -14 -10 -11 -3 3 -2 9 2 15 9 16 15 13 8
-4z m1117 0 c11 -13 10 -14 -4 -9 -9 3 -16 10 -16 15 0 13 6 11 20 -6z m502
-32 c-6 -2 -10 -9 -6 -14 3 -5 0 -9 -5 -9 -12 0 -14 13 -4 23 3 4 11 7 17 6 6
0 5 -3 -2 -6z m-582 -35 c0 -5 -7 -3 -15 6 -8 8 -15 18 -15 22 0 3 7 1 15 -6
8 -7 15 -17 15 -22z m-1097 -13 c-7 -21 -12 -19 -10 4 0 11 5 18 9 15 4 -3 5
-11 1 -19z m-818 -45 c8 -27 30 -58 36 -54 5 3 6 -2 3 -10 -3 -9 5 -26 20 -41
14 -14 26 -30 26 -36 0 -6 5 -7 10 -4 6 3 10 -3 10 -13 0 -19 14 -37 35 -44 6
-1 9 -7 7 -12 -2 -5 4 -6 13 -2 9 3 14 2 10 -3 -3 -5 1 -12 7 -14 9 -4 8 -6
-2 -6 -9 -1 -36 16 -62 37 -76 63 -208 184 -208 191 1 3 17 19 37 34 l37 28
10 -23 c5 -13 10 -25 11 -28z m1992 -12 c-3 -8 -6 -5 -6 6 -1 11 2 17 5 13 3
-3 4 -12 1 -19z m-640 -40 c-3 -8 -6 -5 -6 6 -1 11 2 17 5 13 3 -3 4 -12 1
-19z m1195 -10 c-7 -7 -12 -8 -12 -2 0 14 12 26 19 19 2 -3 -1 -11 -7 -17z
m94 -50 c5 -7 3 -8 -6 -3 -9 5 -10 1 -6 -16 6 -20 5 -21 -4 -6 -6 9 -8 22 -5
27 8 13 12 13 21 -2z m-452 -79 c-2 -4 -14 -4 -27 -1 -17 5 -18 7 -5 10 11 2
15 9 11 20 -4 13 -2 12 10 -3 8 -11 13 -23 11 -26z m-2293 -166 c147 -119 330
-238 494 -320 27 -14 51 -26 52 -28 2 -1 -15 -44 -38 -95 -66 -153 -121 -321
-209 -642 l-11 -38 -584 0 c-479 0 -585 2 -585 13 0 33 69 211 70 180 0 -10
114 -12 494 -13 271 0 501 2 510 6 9 3 16 13 16 21 0 8 4 12 8 9 5 -3 23 34
41 82 45 122 47 127 31 117 -9 -5 -11 -4 -6 4 4 6 11 9 15 7 7 -5 51 80 51 98
0 3 -9 2 -19 -4 -29 -15 -37 -12 -15 6 16 13 16 15 2 10 -11 -3 -17 0 -15 7 1
7 -6 11 -15 11 -10 -1 -16 2 -13 6 3 5 -9 16 -27 24 -41 21 -168 117 -168 128
0 5 9 19 20 31 11 12 18 27 15 35 -2 7 0 10 5 7 6 -3 10 -2 10 4 0 5 -5 13
-11 16 -6 4 -8 13 -5 20 6 17 -20 39 -35 29 -7 -4 -9 -3 -5 4 7 11 -50 59 -65
55 -5 -2 -8 3 -6 10 1 6 -4 11 -11 9 -8 -1 -11 2 -8 7 4 5 -4 17 -16 25 -12 9
-70 63 -129 121 l-107 105 41 49 41 49 57 -52 c31 -29 90 -80 130 -113z m3179
143 c-7 -7 -13 -7 -20 0 -6 6 -3 10 10 10 13 0 16 -4 10 -10z m-1785 -66 c3
-6 -1 -7 -9 -4 -18 7 -21 14 -7 14 6 0 13 -4 16 -10z m2184 -20 c5 0 22 -5 37
-10 25 -10 26 -12 10 -29 -9 -10 -16 -24 -14 -32 2 -7 -2 -13 -8 -14 -20 0
-105 -85 -98 -97 4 -7 3 -8 -5 -4 -15 10 -43 -13 -34 -28 3 -6 3 -8 -2 -4 -10
10 -37 -11 -30 -22 3 -5 0 -12 -6 -16 -8 -5 -9 -3 -4 6 5 8 3 11 -6 8 -8 -3
-13 -11 -11 -17 1 -7 -2 -10 -7 -7 -5 3 -14 -1 -21 -9 -17 -20 -179 -141 -247
-184 -53 -33 -66 -51 -37 -51 8 0 12 -5 9 -10 -4 -6 -11 -8 -16 -5 -13 8 9
-48 24 -60 7 -5 13 -19 14 -30 1 -17 72 -202 105 -275 6 -14 12 -29 12 -35 1
-5 5 -25 10 -43 l8 -33 480 1 c264 1 481 0 483 -2 8 -9 52 -164 48 -170 -2 -5
-254 -8 -558 -8 l-555 0 -6 28 c-45 202 -130 468 -208 652 -20 46 -36 87 -36
91 0 4 35 26 78 50 126 69 267 167 401 280 123 103 127 105 153 92 15 -7 31
-13 37 -13z m-2916 -135 c-3 -9 -8 -14 -10 -11 -3 3 -2 9 2 15 9 16 15 13 8
-4z m522 -101 c38 -7 37 -3 61 -131 9 -51 20 -90 24 -88 4 2 5 -6 3 -18 -7
-42 3 -48 104 -63 69 -10 85 -17 141 -67 28 -25 61 -48 74 -52 13 -4 26 -13
30 -19 4 -6 8 -122 8 -258 l0 -248 -531 0 -531 0 7 45 c21 145 172 557 300
821 l73 152 101 -34 c55 -18 117 -36 136 -40z m1384 -64 c78 -153 142 -301
197 -457 50 -142 114 -365 114 -400 l0 -23 -500 0 -500 0 0 114 0 114 28 -8
c109 -35 172 -41 459 -40 l291 1 -10 40 c-6 21 -15 39 -20 39 -5 0 -6 4 -3 10
3 5 -1 23 -10 40 -8 16 -15 32 -14 35 3 14 -64 164 -71 160 -5 -3 -6 3 -4 12
3 10 -1 26 -8 35 -12 16 -18 15 -93 -6 -78 -23 -80 -23 -93 -5 -7 11 -18 16
-24 13 -7 -4 -8 -2 -4 4 9 15 -42 90 -67 98 -17 5 -66 -31 -67 -49 0 -10 23
-4 32 8 12 15 10 -7 -2 -25 -7 -11 -10 -11 -10 -2 0 7 -5 10 -10 7 -6 -4 -8
-11 -5 -16 4 -5 1 -9 -5 -9 -7 0 -10 7 -6 15 10 27 -9 16 -28 -16 -11 -19 -14
-29 -6 -24 10 6 12 4 7 -9 -4 -10 -7 -44 -7 -77 l0 -59 -82 0 c-52 0 -98 6
-125 16 l-43 17 0 228 0 229 48 0 c112 0 317 42 482 98 59 20 87 25 93 18 4
-6 34 -63 66 -126z m-2517 -7 c-11 -4 -10 -8 2 -22 14 -15 13 -17 -3 -17 -12
0 -17 7 -15 21 3 26 2 25 17 24 9 0 9 -2 -1 -6z m1 -177 c14 -21 15 -25 1 -30
-8 -3 -12 -1 -9 4 3 5 1 19 -5 30 -15 28 -6 25 13 -4z m2191 -54 c2 -4 -4 -8
-14 -8 -10 0 -16 4 -14 8 3 4 9 8 14 8 5 0 11 -4 14 -8z m-664 -66 c0 -2 -7
-7 -16 -10 -8 -3 -12 -2 -9 4 6 10 25 14 25 6z m307 -288 c-2 -13 -4 -5 -4 17
-1 22 1 32 4 23 2 -10 2 -28 0 -40z m2266 17 c-3 -9 -8 -14 -10 -11 -3 3 -2 9
2 15 9 16 15 13 8 -4z m-2523 -1029 l0 -485 -43 -6 c-23 -4 -280 -5 -571 -3
l-530 3 -9 30 c-5 17 -10 167 -11 335 -1 294 3 356 35 548 l11 62 559 0 559 0
0 -484z m257 432 c-3 -7 -5 -2 -5 12 0 14 2 19 5 13 2 -7 2 -19 0 -25z m-2850
-190 c-3 -8 -6 -5 -6 6 -1 11 2 17 5 13 3 -3 4 -12 1 -19z m-10 -200 c-2 -13
-4 -3 -4 22 0 25 2 35 4 23 2 -13 2 -33 0 -45z m609 -347 l562 -1 5 -32 c4
-18 7 -60 9 -93 l2 -60 -582 -1 c-463 -1 -582 2 -586 12 -3 7 -8 50 -12 97
l-6 84 23 -3 c13 -1 277 -3 585 -3z m606 -468 c4 -21 7 -50 7 -65 l1 -28 -563
0 -563 0 -17 64 c-9 35 -17 66 -17 68 0 1 258 2 572 1 l573 -2 7 -38z m-985
-149 c-3 -3 -12 -4 -19 -1 -8 3 -5 6 6 6 11 1 17 -2 13 -5z m-87 -34 c0 -11
-2 -20 -4 -20 -2 0 -6 9 -9 20 -3 11 -1 20 4 20 5 0 9 -9 9 -20z m56 -28 c-12
-11 -18 7 -10 30 l8 23 4 -23 c2 -13 1 -26 -2 -30z m-29 16 c-3 -8 -6 -5 -6 6
-1 11 2 17 5 13 3 -3 4 -12 1 -19z m13 -103 c0 -5 -5 -3 -10 5 -5 8 -10 20
-10 25 0 6 5 3 10 -5 5 -8 10 -19 10 -25z m1608 -9 c-1 -14 -5 -23 -9 -20 -7
4 0 44 7 44 2 0 3 -11 2 -24z m2179 -112 c13 -74 44 -129 98 -169 60 -46 97
-54 265 -55 l155 0 48 -60 48 -60 -298 0 -298 0 -35 56 c-19 31 -68 90 -107
132 -40 41 -73 78 -73 81 0 3 12 36 27 73 l28 68 65 0 66 0 11 -66z m-3747 36
c6 -11 7 -20 2 -20 -6 0 -12 9 -15 20 -3 11 -3 20 -1 20 2 0 8 -9 14 -20z m40
-15 c11 -13 10 -14 -4 -9 -9 3 -16 10 -16 15 0 13 6 11 20 -6z m16 -110 c0
-19 -1 -35 -2 -35 -1 0 -7 14 -13 30 -6 18 -6 28 -1 25 6 -4 10 -1 10 4 0 6 1
11 3 11 2 0 3 -16 3 -35z m81 -97 c-3 -8 -6 -5 -6 6 -1 11 2 17 5 13 3 -3 4
-12 1 -19z m72 -160 c-7 -14 -7 -24 2 -36 11 -15 11 -15 -1 -4 -18 16 -21 59
-3 59 9 0 9 -5 2 -19z m3305 -67 c31 -39 56 -72 56 -76 0 -3 -24 15 -54 39
-30 24 -62 48 -71 54 -12 6 -15 16 -10 31 3 11 10 21 15 21 4 0 33 -31 64 -69z
m-2469 41 c-3 -3 -11 0 -18 7 -9 10 -8 11 6 5 10 -3 15 -9 12 -12z m-105 -26
c0 -2 -7 -7 -16 -10 -8 -3 -12 -2 -9 4 6 10 25 14 25 6z m29 -9 c-2 -1 -13 -9
-24 -17 -19 -14 -19 -14 -6 3 7 9 18 17 24 17 6 0 8 -1 6 -3z m-80 -50 c-2 -1
-13 -9 -24 -17 -19 -14 -19 -14 -6 3 7 9 18 17 24 17 6 0 8 -1 6 -3z m-593
-29 c0 -10 -1 -18 -2 -18 0 0 -8 8 -17 18 -15 16 -15 18 1 18 10 0 18 -8 18
-18z m34 2 c0 -5 -2 -10 -4 -10 -3 0 -8 5 -11 10 -3 6 -1 10 4 10 6 0 11 -4
11 -10z m505 -10 c-3 -5 -12 -10 -18 -10 -7 0 -6 4 3 10 19 12 23 12 15 0z
m540 -151 c37 -66 80 -143 95 -170 22 -36 25 -46 12 -38 -15 9 -30 3 -82 -31
-36 -23 -64 -46 -62 -52 1 -5 -2 -7 -8 -3 -5 3 -22 -2 -38 -13 -15 -11 -46
-29 -70 -41 l-43 -22 -32 23 c-18 12 -40 30 -51 39 -10 10 -30 23 -45 29 -25
10 -35 6 -118 -50 -50 -33 -97 -68 -105 -78 -12 -16 -11 -16 7 -2 19 14 19 14
6 -2 -7 -10 -18 -15 -25 -11 -25 15 -126 107 -126 115 0 19 197 179 314 255
55 36 294 172 303 173 1 0 32 -54 68 -121z m1725 87 c0 -14 -35 -103 -119
-302 -56 -133 -61 -172 -31 -222 38 -62 121 -73 179 -24 11 9 54 100 95 202
101 252 105 260 115 260 19 0 110 -104 139 -158 106 -198 73 -422 -84 -580
-201 -201 -522 -195 -712 13 -64 70 -99 141 -119 244 -15 74 -15 88 0 163 9
45 30 111 48 146 78 158 254 266 442 271 34 1 47 -3 47 -13z m2515 -28 c157
-51 282 -190 316 -349 16 -75 6 -212 -20 -281 -103 -266 -407 -389 -661 -266
-88 43 -187 141 -228 229 -18 37 -32 70 -32 73 0 3 111 6 248 6 227 0 250 2
279 20 58 35 78 101 48 164 -30 63 -45 66 -325 66 l-251 0 6 23 c14 46 61 122
101 162 60 62 219 144 339 175 39 11 106 2 180 -22z m-4895 18 c0 -2 -8 -10
-17 -17 -16 -13 -17 -12 -4 4 13 16 21 21 21 13z m3855 -93 c31 -43 60 -84 62
-90 4 -10 -73 -13 -365 -13 l-370 0 -6 23 c-3 12 -14 52 -25 90 l-20 67 333 0
333 0 58 -77z m-3915 43 c0 -2 -12 -11 -27 -20 l-28 -17 24 20 c23 21 31 25
31 17z m-244 -28 c0 -10 -1 -18 -2 -18 0 0 -8 8 -17 18 -15 16 -15 18 1 18 10
0 18 -8 18 -18z m81 -93 c0 -8 -4 -12 -9 -9 -4 3 -8 9 -8 15 0 5 4 9 8 9 5 0
9 -7 9 -15z m1313 -100 c0 -5 -9 5 -20 23 -26 42 -26 56 0 17 11 -16 20 -34
20 -40z m207 33 c-3 -8 -6 -5 -6 6 -1 11 2 17 5 13 3 -3 4 -12 1 -19z m-68
-182 c-3 -3 -11 5 -18 17 -13 21 -12 21 5 5 10 -10 16 -20 13 -22z m-9 -33
c12 -20 16 -32 8 -26 -17 15 -54 78 -40 70 5 -4 20 -24 32 -44z m-695 17 c-3
-5 -12 -10 -18 -10 -7 0 -6 4 3 10 19 12 23 12 15 0z m722 -22 c-3 -8 -6 -5
-6 6 -1 11 2 17 5 13 3 -3 4 -12 1 -19z m2723 -20 c6 -24 15 -59 21 -78 5 -19
9 -41 9 -47 0 -10 -78 -13 -357 -13 l-358 0 -26 90 -27 90 364 0 363 0 11 -42z
m-3046 -44 c3 -8 2 -12 -4 -9 -6 3 -10 10 -10 16 0 14 7 11 14 -7z m-668 -76
l19 -23 -25 20 c-14 11 -27 21 -29 22 -2 2 0 3 6 3 5 0 18 -10 29 -22z m2818
-112 c9 -49 61 -115 104 -133 31 -13 105 -16 474 -17 l437 -2 45 -61 c61 -81
164 -176 234 -216 l57 -32 -448 -3 c-246 -1 -648 -1 -894 0 l-447 3 69 40
c138 79 287 260 332 403 9 28 20 52 24 52 4 0 10 -15 13 -34z m-2449 -75 c3
-5 2 -12 -3 -15 -5 -3 -9 1 -9 9 0 17 3 19 12 6z m583 -125 c-7 -8 -15 -12
-17 -11 -5 6 10 25 20 25 5 0 4 -6 -3 -14z"/>
<path d="M6332 7849 c-190 -37 -249 -301 -93 -414 93 -68 193 -69 286 -5 163
112 124 358 -66 414 -58 17 -64 18 -127 5z"/>
<path d="M6094 6603 c18 -34 55 -81 56 -71 0 9 -60 98 -66 98 -2 0 2 -12 10
-27z"/>
<path d="M3532 6079 c2 -7 10 -15 17 -17 8 -3 12 1 9 9 -2 7 -10 15 -17 17 -8
3 -12 -1 -9 -9z"/>
<path d="M4144 4963 c-69 -4 -72 -5 -78 -31 -9 -42 -20 -623 -12 -664 l7 -37
389 -1 390 0 37 72 c21 40 37 78 37 85 -1 7 2 11 6 10 15 -4 15 8 1 50 -8 23
-18 40 -22 37 -5 -3 -6 2 -3 11 4 10 -4 28 -22 47 -16 17 -24 28 -17 24 6 -3
-2 20 -18 51 -20 39 -31 80 -36 125 -5 56 -10 71 -34 94 -25 24 -34 26 -103
26 -52 -1 -80 3 -89 13 -8 7 -43 32 -77 54 l-63 41 -111 -2 c-61 -1 -143 -4
-182 -5z m611 -133 c3 -6 -1 -7 -9 -4 -18 7 -21 14 -7 14 6 0 13 -4 16 -10z"/>
<path d="M4334 8361 c-45 -27 -64 -59 -64 -107 0 -117 152 -162 217 -65 40 60
26 126 -36 168 -41 28 -76 29 -117 4z"/>
<path d="M8030 7093 c-51 -47 -54 -127 -5 -175 47 -48 122 -42 171 13 31 34
37 72 19 117 -30 74 -127 97 -185 45z"/>
<path d="M2190 6628 c-29 -28 -32 -36 -27 -75 7 -63 38 -93 95 -93 61 0 102
40 102 100 0 93 -104 134 -170 68z"/>
<path d="M2005 6110 c-59 -30 -90 -80 -89 -149 0 -70 22 -113 76 -149 113 -75
278 13 278 149 0 126 -146 208 -265 149z"/>
<path d="M8024 6105 c-128 -76 -98 -276 46 -315 105 -28 220 61 220 171 -1
132 -150 214 -266 144z"/>
<path d="M1775 5148 c-124 -44 -141 -222 -26 -286 110 -62 241 13 241 138 0
111 -108 185 -215 148z"/>
<path d="M8335 5148 c-129 -47 -141 -235 -19 -293 46 -22 124 -16 162 12 96
71 96 195 1 266 -32 23 -102 31 -144 15z"/>
<path d="M8380 4193 c-55 -22 -67 -107 -21 -154 59 -59 160 -16 161 69 0 64
-75 110 -140 85z"/>
<path d="M1770 4130 c-44 -44 -11 -114 52 -112 90 2 87 132 -2 132 -17 0 -39
-9 -50 -20z"/>
<path d="M7290 3670 l-125 -5 50 -40 c28 -22 51 -43 53 -47 5 -12 55 3 73 21
8 9 30 29 48 44 19 15 32 29 30 30 -2 1 -60 0 -129 -3z m0 -40 c-13 -8 -12
-10 3 -10 9 0 17 5 17 10 0 6 15 9 33 9 23 -1 26 -3 10 -6 -20 -4 -26 -12 -25
-33 1 -10 -53 -8 -65 2 -15 12 3 37 27 37 13 1 13 0 0 -9z"/>
<path d="M1843 3588 c-58 -28 -68 -127 -16 -168 46 -36 122 -20 149 31 47 92
-40 182 -133 137z"/>
<path d="M2270 2642 c-43 -21 -70 -72 -70 -133 l0 -46 -77 -7 c-80 -6 -114
-21 -134 -57 -28 -53 -6 -140 42 -164 17 -9 56 -15 99 -15 l70 0 0 -49 c0
-120 72 -185 163 -148 50 21 66 52 69 129 l3 66 82 4 c69 2 85 7 107 27 58 54
54 139 -7 183 -25 18 -47 23 -107 25 l-75 2 -5 69 c-6 80 -23 106 -79 122 -45
13 -40 13 -81 -8z"/>
</g>
</svg>
